<?xml version="1.0" encoding="UTF-8" standalone="no" ?>
<!DOCTYPE svg PUBLIC "-//W3C//DTD SVG 1.1//EN" "http://www.w3.org/Graphics/SVG/1.1/DTD/svg11.dtd">
<svg xmlns="http://www.w3.org/2000/svg" xmlns:xlink="http://www.w3.org/1999/xlink" version="1.1" width="100" height="100" viewBox="0 0 100 100" xml:space="preserve">
<desc>Created with Fabric.js 4.2.0</desc>
<defs>
</defs>
<rect x="0" y="0" width="100%" height="100%" fill="transparent"></rect>
<g transform="matrix(0 0 0 0 0 0)" id="9886e641-8706-45eb-bdc0-088cc4d43029"  >
</g>
<g transform="matrix(1 0 0 1 50 50)" id="bfbe20b0-f1d5-473a-aaed-9abb325aaa50"  >
<rect style="stroke: none; stroke-width: 1; stroke-dasharray: none; stroke-linecap: butt; stroke-dashoffset: 0; stroke-linejoin: miter; stroke-miterlimit: 4; fill: rgb(255,215,151); fill-rule: nonzero; opacity: 1;" vector-effect="non-scaling-stroke"  x="-50" y="-50" rx="0" ry="0" width="100" height="100" />
</g>
<g transform="matrix(0.28 0 0 0.28 50.08 34.79)" id="5cbfba1e-2ee8-4920-b56c-0507bc1901cc"  >
<polygon style="stroke: rgb(0,0,0); stroke-width: 0; stroke-dasharray: none; stroke-linecap: butt; stroke-dashoffset: 0; stroke-linejoin: miter; stroke-miterlimit: 4; fill: rgb(249,0,255); fill-rule: nonzero; opacity: 1;" vector-effect="non-scaling-stroke"  points="0,-35.47 11.56,-12.17 37.29,-8.4 18.68,9.8 23.06,35.47 0,23.42 -23.06,35.47 -18.74,9.8 -37.29,-8.4 -11.56,-12.17 " />
</g>
<g transform="matrix(0.24 0 0 0.24 50.7 67.41)" id="44c81f55-1ff1-4ace-8cd6-73b7096c7fbc"  >
<polygon style="stroke: rgb(0,0,0); stroke-width: 0; stroke-dasharray: none; stroke-linecap: butt; stroke-dashoffset: 0; stroke-linejoin: miter; stroke-miterlimit: 4; fill: rgb(247,4,255); fill-rule: nonzero; opacity: 1;" vector-effect="non-scaling-stroke"  points="0,-35.47 11.56,-12.17 37.29,-8.4 18.68,9.8 23.06,35.47 0,23.42 -23.06,35.47 -18.74,9.8 -37.29,-8.4 -11.56,-12.17 " />
</g>
<g transform="matrix(0.24 0 0 0.24 30.36 50)" id="82edb22c-c5dd-4f6f-8c36-8d248ee075e6"  >
<path style="stroke: rgb(0,0,0); stroke-width: 0; stroke-dasharray: none; stroke-linecap: butt; stroke-dashoffset: 0; stroke-linejoin: miter; stroke-miterlimit: 4; fill: rgb(38,142,216); fill-rule: nonzero; opacity: 1;" vector-effect="non-scaling-stroke"  transform=" translate(-50, -50)" d="M 87.294 41.605 L 61.56099999999999 37.833 L 50.00099999999999 14.532999999999998 L 38.43999999999999 37.833 L 12.70699999999999 41.605 L 31.32299999999999 59.797 L 26.94299999999999 85.467 L 50.001999999999995 73.362 L 73.06 85.467 L 68.739 59.797 L 87.294 41.605 z M 50.001 65.087 L 35.095 72.875 L 37.893 56.325 L 25.909 44.585 L 42.516 42.152 L 50.001 27.064 L 57.482 42.152 L 74.089 44.585 L 62.105 56.325 L 64.905 72.875 L 50.001 65.087 z" stroke-linecap="round" />
</g>
<g transform="matrix(0.24 0 0 0.24 69.29 50)"  >
<path style="stroke: rgb(0,0,0); stroke-width: 0; stroke-dasharray: none; stroke-linecap: butt; stroke-dashoffset: 0; stroke-linejoin: miter; stroke-miterlimit: 4; fill: rgb(124,255,244); fill-rule: nonzero; opacity: 1;" vector-effect="non-scaling-stroke"  transform=" translate(-50, -50)" d="M 87.294 41.605 L 61.56099999999999 37.833 L 50.00099999999999 14.532999999999998 L 38.43999999999999 37.833 L 12.70699999999999 41.605 L 31.32299999999999 59.797 L 26.94299999999999 85.467 L 50.001999999999995 73.362 L 73.06 85.467 L 68.739 59.797 L 87.294 41.605 z M 50.001 65.087 L 35.095 72.875 L 37.893 56.325 L 25.909 44.585 L 42.516 42.152 L 50.001 27.064 L 57.482 42.152 L 74.089 44.585 L 62.105 56.325 L 64.905 72.875 L 50.001 65.087 z" stroke-linecap="round" />
</g>
<g transform="matrix(0.24 0 0 0.24 69.29 50)"  >
<path style="stroke: rgb(0,0,0); stroke-width: 0; stroke-dasharray: none; stroke-linecap: butt; stroke-dashoffset: 0; stroke-linejoin: miter; stroke-miterlimit: 4; fill: rgb(38,142,216); fill-rule: nonzero; opacity: 1;" vector-effect="non-scaling-stroke"  transform=" translate(-50, -50)" d="M 87.294 41.605 L 61.56099999999999 37.833 L 50.00099999999999 14.532999999999998 L 38.43999999999999 37.833 L 12.70699999999999 41.605 L 31.32299999999999 59.797 L 26.94299999999999 85.467 L 50.001999999999995 73.362 L 73.06 85.467 L 68.739 59.797 L 87.294 41.605 z M 50.001 65.087 L 35.095 72.875 L 37.893 56.325 L 25.909 44.585 L 42.516 42.152 L 50.001 27.064 L 57.482 42.152 L 74.089 44.585 L 62.105 56.325 L 64.905 72.875 L 50.001 65.087 z" stroke-linecap="round" />
</g>
</svg>