<?xml version="1.0" encoding="UTF-8" standalone="no" ?>
<!DOCTYPE svg PUBLIC "-//W3C//DTD SVG 1.1//EN" "http://www.w3.org/Graphics/SVG/1.1/DTD/svg11.dtd">
<svg xmlns="http://www.w3.org/2000/svg" xmlns:xlink="http://www.w3.org/1999/xlink" version="1.1" width="100" height="100" viewBox="0 0 100 100" xml:space="preserve">
<desc>Created with Fabric.js 4.2.0</desc>
<defs>
</defs>
<rect x="0" y="0" width="100%" height="100%" fill="transparent"></rect>
<g transform="matrix(1 0 0 1 50 50)" id="bfbe20b0-f1d5-473a-aaed-9abb325aaa50"  >
<rect style="stroke: none; stroke-width: 1; stroke-dasharray: none; stroke-linecap: butt; stroke-dashoffset: 0; stroke-linejoin: miter; stroke-miterlimit: 4; fill: rgb(228,255,198); fill-rule: nonzero; opacity: 1;" vector-effect="non-scaling-stroke"  x="-50" y="-50" rx="0" ry="0" width="100" height="100" />
</g>
<g transform="matrix(Infinity NaN NaN Infinity 0 0)" id="9886e641-8706-45eb-bdc0-088cc4d43029"  >
</g>
<g transform="matrix(0.77 0 0 0.77 50 50)"  >
<g style="" vector-effect="non-scaling-stroke"   >
		<g transform="matrix(1 0 0 1 0 0)"  >
<path style="stroke: none; stroke-width: 1; stroke-dasharray: none; stroke-linecap: butt; stroke-dashoffset: 0; stroke-linejoin: miter; stroke-miterlimit: 4; fill: rgb(68,99,143); fill-rule: nonzero; opacity: 1;" vector-effect="non-scaling-stroke"  transform=" translate(-50, -50)" d="M 87.723 49.971 C 87.723 60.422999999999995 83.496 69.847 76.645 76.643 C 69.845 83.496 60.42399999999999 87.72200000000001 49.973 87.72200000000001 C 39.576 87.72200000000001 30.156 83.495 23.301 76.643 C 16.505 69.847 12.278999999999998 60.422 12.278999999999998 49.971000000000004 C 12.278999999999998 39.578 16.506 30.154000000000003 23.301 23.301000000000002 C 30.156 16.503 39.57599999999999 12.277000000000003 49.973 12.277000000000003 C 60.424 12.277000000000003 69.845 16.504000000000005 76.645 23.301000000000002 C 83.496 30.154 87.723 39.578 87.723 49.971 z M 73.501 73.501 C 79.498 67.506 83.268 59.167 83.268 49.971000000000004 C 83.268 40.776 79.498 32.495000000000005 73.501 26.441000000000003 C 67.504 20.446 59.165000000000006 16.731 49.973000000000006 16.731 C 40.77600000000001 16.731 32.49700000000001 20.446 26.441000000000006 26.441000000000003 C 20.444000000000006 32.495000000000005 16.733000000000004 40.776 16.733000000000004 49.971000000000004 C 16.733000000000004 59.167 20.444000000000003 67.506 26.441000000000003 73.501 C 32.497 79.498 40.776 83.269 49.973 83.269 C 59.165 83.269 67.504 79.498 73.501 73.501 z" stroke-linecap="round" />
</g>
		<g transform="matrix(1 0 0 1 9.2 -12.45)"  >
<path style="stroke: none; stroke-width: 1; stroke-dasharray: none; stroke-linecap: butt; stroke-dashoffset: 0; stroke-linejoin: miter; stroke-miterlimit: 4; fill: rgb(68,99,143); fill-rule: nonzero; opacity: 1;" vector-effect="non-scaling-stroke"  transform=" translate(-59.2, -37.55)" d="M 47.631 46.26 L 47.631 21.071 L 51 21.071 L 51 46.087 C 52.027 46.48800000000001 52.826 47.287000000000006 53.287 48.315000000000005 L 72.99 48.315000000000005 L 72.99 51.685 L 53.227 51.685 C 52.541999999999994 53.056000000000004 51.114 54.027 49.516999999999996 54.027 C 47.23 54.027 45.404999999999994 52.199 45.404999999999994 49.915 C 45.404 48.314 46.317 46.888 47.631 46.26 z" stroke-linecap="round" />
</g>
		<g transform="matrix(1 0 0 1 0 0)"  >
<path style="stroke: none; stroke-width: 1; stroke-dasharray: none; stroke-linecap: butt; stroke-dashoffset: 0; stroke-linejoin: miter; stroke-miterlimit: 4; fill: rgb(68,99,143); fill-rule: nonzero; opacity: 1;" vector-effect="non-scaling-stroke"  transform=" translate(-50, -50)" d="M 49.973 17.532 C 58.937 17.532 67.047 21.188 72.93 27.014 C 78.81400000000001 32.894999999999996 82.46900000000001 41.004999999999995 82.46900000000001 49.971999999999994 C 82.46900000000001 58.94 78.81400000000001 67.04899999999999 72.93 72.931 C 67.04700000000001 78.814 58.937000000000005 82.468 49.973000000000006 82.468 C 41.00500000000001 82.468 32.894000000000005 78.81400000000001 27.011000000000006 72.931 C 21.187000000000005 67.048 17.532000000000007 58.94 17.532000000000007 49.971999999999994 C 17.532000000000007 41.00599999999999 21.188000000000006 32.894999999999996 27.011000000000006 27.013999999999996 C 32.894 21.188 41.004 17.532 49.973 17.532 z M 71.729 28.269 C 66.193 22.673 58.48 19.246 49.971999999999994 19.246 C 41.51899999999999 19.246 33.806 22.673 28.268999999999995 28.269 C 22.668999999999997 33.81 19.245999999999995 41.519 19.245999999999995 49.971999999999994 C 19.245999999999995 58.480999999999995 22.668999999999997 66.192 28.268999999999995 71.73299999999999 C 33.806 77.27099999999999 41.51899999999999 80.75599999999999 49.971999999999994 80.75599999999999 C 58.47999999999999 80.75599999999999 66.193 77.27099999999999 71.729 71.73299999999999 C 77.27 66.192 80.752 58.48099999999999 80.752 49.971999999999994 C 80.753 41.519 77.271 33.81 71.729 28.269 z" stroke-linecap="round" />
</g>
</g>
</g>
</svg>