<?xml version="1.0" encoding="UTF-8" standalone="no" ?>
<!DOCTYPE svg PUBLIC "-//W3C//DTD SVG 1.1//EN" "http://www.w3.org/Graphics/SVG/1.1/DTD/svg11.dtd">
<svg xmlns="http://www.w3.org/2000/svg" xmlns:xlink="http://www.w3.org/1999/xlink" version="1.1" width="100" height="100" viewBox="0 0 100 100" xml:space="preserve">
<desc>Created with Fabric.js 4.2.0</desc>
<defs>
</defs>
<rect x="0" y="0" width="100%" height="100%" fill="transparent"></rect>
<g transform="matrix(0 0 0 0 0 0)" id="9886e641-8706-45eb-bdc0-088cc4d43029"  >
</g>
<g transform="matrix(1 0 0 1 50 50)" id="bfbe20b0-f1d5-473a-aaed-9abb325aaa50"  >
<rect style="stroke: none; stroke-width: 1; stroke-dasharray: none; stroke-linecap: butt; stroke-dashoffset: 0; stroke-linejoin: miter; stroke-miterlimit: 4; fill: rgb(255,237,224); fill-rule: nonzero; opacity: 1;" vector-effect="non-scaling-stroke"  x="-50" y="-50" rx="0" ry="0" width="100" height="100" />
</g>
<g transform="matrix(0.78 0 0 0.78 49.98 49.98)"  >
<path style="stroke: rgb(0,0,0); stroke-width: 0; stroke-dasharray: none; stroke-linecap: butt; stroke-dashoffset: 0; stroke-linejoin: miter; stroke-miterlimit: 4; fill: rgb(255,255,255); fill-rule: nonzero; opacity: 1;" vector-effect="non-scaling-stroke"  transform=" translate(-49.82, -49.94)" d="M 49.844 20.512 C 70.524 20.512 87.273 31.782 87.273 45.668 C 87.273 59.555 70.524 70.12899999999999 49.843999999999994 70.771 C 45.37799999999999 74.56400000000001 45.96399999999999 77.5 31.981999999999996 79.37 C 35.224 76.914 39.370999999999995 74.885 38.678999999999995 69.916 C 23.420999999999996 66.926 12.363999999999994 57.046 12.363999999999994 45.669 C 12.363 31.622 29.161 20.512 49.844 20.512 z" stroke-linecap="round" />
</g>
<g transform="matrix(0.44 0 0 0.4 50 47.1)"  >
<path style="stroke: rgb(0,0,0); stroke-width: 0; stroke-dasharray: none; stroke-linecap: butt; stroke-dashoffset: 0; stroke-linejoin: miter; stroke-miterlimit: 4; fill: rgb(0,242,54); fill-rule: nonzero; opacity: 1;" vector-effect="non-scaling-stroke"  transform=" translate(-50, -50)" d="M 14.148 44.105 L 18.091 40.162 C 20.01 38.242 23.176000000000002 38.242 25.096 40.162 L 42.164 57.230999999999995 L 74.904 24.440999999999995 C 76.823 22.521999999999995 79.98899999999999 22.521999999999995 81.90899999999999 24.440999999999995 L 85.851 28.383999999999997 C 87.771 30.302999999999997 87.771 33.415 85.851 35.334999999999994 L 45.641 75.54499999999999 L 45.537 75.64899999999999 L 45.433 75.75299999999999 L 45.329 75.80499999999999 L 45.277 75.90899999999999 L 45.173 75.961 L 45.069 76.065 L 44.965 76.117 L 44.861000000000004 76.16900000000001 L 44.757000000000005 76.27400000000002 L 44.653000000000006 76.32400000000001 L 44.54900000000001 76.37800000000001 L 44.44500000000001 76.43000000000002 L 44.34100000000001 76.48200000000003 L 44.23700000000001 76.53400000000003 L 44.08000000000001 76.58600000000004 L 43.97600000000001 76.63800000000005 L 43.872000000000014 76.69000000000005 L 43.768000000000015 76.74200000000006 L 43.664000000000016 76.74200000000006 L 43.56000000000002 76.79400000000007 L 43.405000000000015 76.84700000000007 L 43.301000000000016 76.84700000000007 L 43.19700000000002 76.89900000000007 L 42.93800000000002 76.89900000000007 L 42.83400000000002 76.95100000000008 L 42.62600000000002 76.95100000000008 L 42.47100000000002 77.00300000000009 L 41.795000000000016 77.00300000000009 L 41.640000000000015 76.95100000000008 L 41.432000000000016 76.95100000000008 L 41.32800000000002 76.89900000000007 L 41.06900000000002 76.89900000000007 L 40.96500000000002 76.84700000000007 L 40.86100000000002 76.84700000000007 L 40.70600000000002 76.79400000000007 L 40.60200000000002 76.74200000000006 L 40.49800000000002 76.74200000000006 L 40.39400000000002 76.69000000000005 L 40.29000000000002 76.63800000000005 L 40.185000000000024 76.58600000000004 L 40.081000000000024 76.53400000000003 L 40.029000000000025 76.53400000000003 C 39.563000000000024 76.32500000000003 39.096000000000025 75.96200000000003 38.630000000000024 75.54800000000003 L 14.140000000000025 51.059000000000026 C 12.229 49.137 12.229 46.025 14.148 44.105 z" stroke-linecap="round" />
</g>
</svg>